<svg xmlns="http://www.w3.org/2000/svg" viewBox="0 0 512 512"><defs><linearGradient id="g" x1="0" y1="0" x2="1" y2="1"><stop stop-color="#ff315a"/><stop offset=".42" stop-color="#20151b"/><stop offset="1" stop-color="#070912"/></linearGradient><filter id="s"><feDropShadow dx="0" dy="12" stdDeviation="14" flood-color="#000" flood-opacity=".45"/></filter></defs><rect width="512" height="512" rx="108" fill="url(#g)"/><path d="M263 67c-49 64-99 119-99 196 0 79 47 140 92 179 48-42 93-101 93-179 0-77-43-132-86-196z" fill="#ff365d" filter="url(#s)"/><path d="M260 144c-31 51-57 83-57 124 0 39 25 76 53 102 29-27 54-62 54-102 0-44-22-75-50-124z" fill="#111722"/><path d="M132 266h248v36H132z" fill="#f0f3ff"/><text x="256" y="452" font-size="46" font-family="Arial Black,Arial" font-weight="900" text-anchor="middle" fill="#fff">BLOOD</text></svg>