<svg xmlns="http://www.w3.org/2000/svg" viewBox="0 0 512 512"><defs><linearGradient id="g" x1="0" y1="0" x2="1" y2="1"><stop stop-color="#ff7a18"/><stop offset=".45" stop-color="#171b23"/><stop offset="1" stop-color="#070912"/></linearGradient><filter id="s"><feDropShadow dx="0" dy="12" stdDeviation="14" flood-color="#000" flood-opacity=".45"/></filter></defs><rect width="512" height="512" rx="108" fill="url(#g)"/><path d="M260 72c66 77 49 129 16 169 45-20 82-2 104 40 35 68-15 142-103 154-103 14-178-65-134-155 28-56 75-77 117-208z" fill="#ffdb5c" filter="url(#s)"/><path d="M265 173c31 38 27 77 0 109 27-7 52 5 64 29 18 36-8 77-55 84-55 8-95-35-72-84 16-33 47-50 63-138z" fill="#ff4d3d"/></svg>