<svg xmlns="http://www.w3.org/2000/svg" viewBox="0 0 900 520" role="img" aria-label="Mobile Legends cover">
  <defs>
    <linearGradient id="bg" x1="0" y1="0" x2="1" y2="1">
      <stop offset="0" stop-color="#102f67"/>
      <stop offset=".52" stop-color="#161b46"/>
      <stop offset="1" stop-color="#3b1b5b"/>
    </linearGradient>
    <radialGradient id="glow" cx="48%" cy="42%" r="55%">
      <stop offset="0" stop-color="#67d7ff" stop-opacity=".9"/>
      <stop offset=".45" stop-color="#2f7bff" stop-opacity=".28"/>
      <stop offset="1" stop-color="#030916" stop-opacity="0"/>
    </radialGradient>
    <linearGradient id="gold" x1="0" y1="0" x2="1" y2="1">
      <stop offset="0" stop-color="#fff4a5"/>
      <stop offset=".45" stop-color="#f5b93e"/>
      <stop offset="1" stop-color="#b46b16"/>
    </linearGradient>
  </defs>
  <rect width="900" height="520" fill="url(#bg)"/>
  <rect width="900" height="520" fill="url(#glow)"/>
  <path d="M116 421c140-188 255-288 346-300 120-16 207 82 322 12-52 128-153 185-290 170-113-12-208 28-378 118Z" fill="#47c8ff" opacity=".18"/>
  <path d="M156 86h590l-64 318H219L156 86Z" fill="#060b19" opacity=".45" stroke="#7ad7ff" stroke-opacity=".32" stroke-width="6"/>
  <path d="M276 150h348l-37 190H315l-39-190Z" fill="none" stroke="url(#gold)" stroke-width="20" stroke-linejoin="round"/>
  <path d="M451 117l74 82-74 82-74-82 74-82Z" fill="url(#gold)"/>
  <path d="M451 159l34 40-34 40-34-40 34-40Z" fill="#123d7b"/>
  <text x="450" y="390" text-anchor="middle" fill="#f5fbff" font-family="Arial, sans-serif" font-size="58" font-weight="800">Mobile Legends</text>
  <text x="450" y="440" text-anchor="middle" fill="#ffd45a" font-family="Arial, sans-serif" font-size="34" font-weight="700">Diamonds Top Up</text>
</svg>
